<?xml version="1.0" encoding="UTF-8"?>
<svg id="Layer_1" data-name="Layer 1" xmlns="http://www.w3.org/2000/svg" viewBox="94 204 246 44">
  <defs>
    <style>
      .cls-1 {
        fill: #d56756;
      }
    </style>
  </defs>
  <g>
    <path class="cls-1" d="M212.77,218.75c.73,1.5,1.1,3.16,1.1,5s-.37,3.5-1.1,4.98c-.73,1.48-1.68,2.66-2.84,3.54-2.35,1.81-4.77,2.71-7.29,2.71h-5.3v4.79c0,.65-.02,1.14-.06,1.46-.04.33-.18.7-.4,1.12-.4.76-1.5,1.14-3.31,1.14-1.98,0-3.14-.52-3.47-1.57-.17-.48-.25-1.21-.25-2.2v-23.52c0-.65.02-1.14.06-1.46.04-.32.18-.7.4-1.12.4-.76,1.5-1.14,3.31-1.14h9.07c2.49,0,4.9.9,7.25,2.71,1.16.88,2.1,2.06,2.84,3.56ZM205.18,226.54c.82-.62,1.23-1.55,1.23-2.8s-.41-2.18-1.23-2.82c-.82-.64-1.67-.95-2.54-.95h-5.3v7.5h5.34c.85,0,1.68-.31,2.5-.93Z"/>
    <path class="cls-1" d="M236.88,229.7c0,1.74-.43,3.02-1.29,3.86-.86.83-1.82,1.25-2.86,1.25h-10.04c0,.79.47,1.46,1.4,1.99.93.54,1.86.81,2.8.81,1.64,0,2.92-.17,3.86-.51l.47-.17c.68-.31,1.24-.47,1.7-.47.9,0,1.68.64,2.33,1.91.37.76.55,1.41.55,1.95,0,2.51-3.01,3.77-9.03,3.77-2.09,0-3.95-.36-5.57-1.08-1.62-.72-2.89-1.67-3.79-2.86-1.78-2.29-2.67-4.85-2.67-7.67,0-3.56,1.15-6.41,3.45-8.54,2.3-2.13,5.18-3.2,8.62-3.2,3.93,0,6.81,1.38,8.64,4.15.96,1.47,1.44,3.07,1.44,4.81ZM227.94,230.95c1.07,0,1.61-.45,1.61-1.36,0-.65-.25-1.17-.74-1.57-.49-.4-1.2-.59-2.12-.59s-1.83.37-2.73,1.12c-.9.75-1.36,1.55-1.36,2.39h5.34Z"/>
    <path class="cls-1" d="M252.18,228.71l-2.75-.17v5.85c0,.76.12,1.31.36,1.65.24.34.69.51,1.36.51s1.17.02,1.53.06c.35.04.73.18,1.12.4.65.37.97,1.31.97,2.84,0,1.78-.4,2.87-1.19,3.26-.42.2-.8.32-1.12.36-.33.04-.8.06-1.42.06-2.94,0-5.17-.66-6.7-1.99-1.53-1.33-2.29-3.57-2.29-6.74v-6.27c-.54.08-1.12.13-1.74.13s-1.14-.24-1.55-.72c-.41-.48-.61-1.3-.61-2.46s.07-2,.21-2.52c.14-.52.34-.9.59-1.12.45-.37,1.02-.55,1.7-.55l1.4.17v-4.36c0-.65.02-1.13.06-1.44.04-.31.18-.65.4-1.02.37-.71,1.45-1.06,3.26-1.06,1.92,0,3.06.52,3.43,1.57.14.45.21,1.17.21,2.16v4.15c1.24-.11,2.18-.17,2.82-.17s1.12.02,1.44.06c.32.04.7.18,1.12.4.73.37,1.1,1.46,1.1,3.26s-.38,2.87-1.14,3.26c-.42.2-.8.32-1.12.36-.33.04-.81.06-1.46.06Z"/>
    <path class="cls-1" d="M277.44,213.62c.23-.42.61-.72,1.14-.89.54-.17,1.21-.25,2.03-.25s1.47.07,1.95.21c.48.14.85.31,1.1.51.25.2.45.48.59.85.14.48.21,1.21.21,2.2v23.52c0,.65-.02,1.14-.06,1.46-.04.33-.18.7-.4,1.12-.4.76-1.5,1.14-3.31,1.14-1.98,0-3.14-.52-3.47-1.57-.17-.48-.25-1.21-.25-2.2v-8.6h-11.23v8.64c0,.65-.02,1.14-.06,1.46-.04.33-.18.7-.4,1.12-.4.76-1.5,1.14-3.31,1.14-1.98,0-3.14-.52-3.48-1.57-.17-.48-.25-1.21-.25-2.2v-23.52c0-.65.02-1.14.06-1.46.04-.32.18-.7.4-1.12.4-.76,1.5-1.14,3.31-1.14,1.98,0,3.15.52,3.52,1.57.14.48.21,1.21.21,2.2v8.64h11.23v-8.69c0-.65.02-1.14.06-1.46.04-.32.18-.7.4-1.12Z"/>
    <path class="cls-1" d="M297.78,243.45c-2.85,0-5.22-1.08-7.1-3.24-1.88-2.16-2.82-4.8-2.82-7.9v-7.42c0-.68.02-1.17.06-1.48.04-.31.16-.68.36-1.1.4-.76,1.5-1.14,3.31-1.14,1.98,0,3.14.54,3.48,1.61.17.45.25,1.17.25,2.16v7.42c0,1.16.33,2.06,1,2.71.66.65,1.55.97,2.67.97s2.02-.34,2.71-1.02c.69-.68,1.04-1.57,1.04-2.67v-7.5c0-.65.02-1.14.06-1.46.04-.32.18-.7.4-1.12.37-.73,1.45-1.1,3.26-1.1s2.87.38,3.26,1.14c.2.42.32.8.36,1.12.04.33.06.81.06,1.46v15c0,.62-.02,1.1-.06,1.42-.04.33-.18.69-.4,1.08-.42.73-1.51,1.1-3.26,1.1s-2.78-.34-3.18-1.02c-.28-.48-.42-1.06-.42-1.74-.11.2-.37.48-.76.85-.4.37-.78.68-1.14.93-.96.62-2.01.93-3.14.93Z"/>
    <path class="cls-1" d="M325.79,221.25c2.51,0,4.82,1.12,6.93,3.35,2.1,2.23,3.16,4.82,3.16,7.78s-1.05,5.54-3.14,7.76c-2.09,2.22-4.34,3.33-6.74,3.33s-4.11-.68-5.13-2.03c-.23,1.38-1.44,2.08-3.64,2.08-1.78,0-2.87-.38-3.26-1.14-.2-.42-.32-.8-.36-1.12-.04-.32-.06-.81-.06-1.46v-25.3c0-.65.02-1.14.06-1.46.04-.32.16-.68.36-1.08.4-.76,1.5-1.14,3.31-1.14s2.85.38,3.22,1.14c.23.42.36.8.4,1.12.04.33.06.81.06,1.46v8.81c1.13-1.38,2.74-2.08,4.83-2.08ZM322.08,234.94c.69.76,1.56,1.14,2.61,1.14s1.93-.38,2.67-1.14c.73-.76,1.1-1.61,1.1-2.54s-.34-1.79-1.02-2.56c-.68-.78-1.58-1.17-2.71-1.17s-2.03.4-2.69,1.19c-.66.79-1,1.65-1,2.56s.35,1.76,1.04,2.52Z"/>
  </g>
  <g>
    <path class="cls-1" d="M129.61,223.92c-.69-2.44-1.37-4.89-2.06-7.33-.27-.95-.53-1.9-.8-2.85-.21-.75-.52-1.68-1.49-1.54-.72.1-1.27.76-1.7,1.29-.24.3-.47.61-.69.91-.04.05-.07.1-.11.15s-.13.17-.03.05c-.12.16-.24.32-.36.48-.87,1.21-1.74,2.6-2.93,3.43-.15.11-.31.2-.48.29-.18.09-.19.1-.4.16-.08.02-.17.04-.25.06.12-.02-.12,0-.15.01-.21,0-.29,0-.42-.04-.88-.21-1.58-1.09-2.19-1.78-.84-.95-1.6-1.96-2.36-2.97-.38-.5-.73-1.02-1.12-1.52-.34-.45-.72-.91-1.22-1.18-.43-.24-.98-.35-1.43-.1-.34.18-.58.51-.79.82-.5.75-.83,1.62-1.17,2.45-.81,2.03-1.53,4.09-2.08,6.21-1.1,4.27-1.55,8.85-.41,13.17.56,2.14,1.53,4.18,2.86,5.95,1.03,1.37,2.34,2.46,3.82,3.32,3.29,1.92,7.3,2.8,11.09,2.49,1.97-.16,3.9-.64,5.67-1.51.88-.43,1.7-.98,2.49-1.56.91-.66,1.8-1.35,2.64-2.1,3.36-3,5.33-7.19,7.52-11.04.9-1.58,1.84-3.11,2.93-4.58.3-.41.61-.81.95-1.18.14-.15.28-.3.44-.44.16-.15.26-.23.4-.32.06-.04.13-.08.19-.12.03-.01.24-.1.12-.06.07-.03.15-.04.22-.07.03,0,.13-.02,0,0,.04,0,.07,0,.11,0,.07,0,.15,0,.22,0-.15-.02.07.03.11.04.11.03.18.07.36.18.75.5,1,1.47,1.21,2.29s.34,1.67.38,2.54c.11,2.17-.26,4.33-.92,6.39-.34,1.08-.71,2.21-1.36,3.15-.27.38-.59.75-.97,1.03-.42.31-.85.44-1.36.54-1.86.36-3.94.28-5.49-.91-.36-.28-.66-.61-.95-.95-.39-.44-.83-.83-1.2-1.3-.53-.67-.89-1.51-1.17-2.29-.6-1.67-.86-3.41-.88-5.18-.04-3.49.81-7.09,2.47-10.16.73-1.35,1.56-2.52,2.72-3.51.06-.06.13-.11.2-.16.08-.06-.02,0,.09-.07.14-.1.28-.2.43-.3.28-.18.57-.33.87-.46.9-.4,1.84-.71,2.8-.92,1.72-.38,3.64-.44,5.27.3.83.38,1.55.94,2.12,1.65.72.91,1.2,1.98,1.73,3.01s1.08,1.93,1.81,2.77c.7.79,1.52,1.48,2.41,2.05,1.74,1.11,3.78,1.75,5.85,1.76,1.75,0,3.8.25,5.06,1.53.61.62.86,1.41,1.05,2.29.23,1.06.27,2.16.15,3.24-.13,1.19-.48,2.36-.94,3.46-.23.55-.49,1.1-.79,1.62-.18.31-.38.59-.55.79-.23.27-.48.52-.74.75s-.44.36-.77.58c-.61.39-1.23.7-1.83.91-.67.24-1.35.41-2.05.52-.22.03-.18.03-.38.05-.18.02-.37.04-.55.05-.34.02-.68.03-1.02.02-.15,0-.31-.01-.46-.03-.08,0-.16-.01-.24-.02-.04,0-.08,0-.12-.01-.13-.01.05,0-.03,0-.3-.04-.6-.1-.89-.18-.13-.03-.26-.07-.39-.11-.07-.02-.13-.04-.2-.07-.03-.01-.06-.02-.1-.04-.02,0-.15-.06-.06-.02.07.03-.07-.03-.1-.05-.06-.03-.12-.06-.17-.09-.11-.06-.22-.12-.32-.19-.05-.03-.1-.07-.15-.1-.08-.05.09.08-.04-.03-.08-.07-.16-.14-.23-.22-.04-.04-.07-.08-.11-.12,0,0,.06.1,0-.01-.06-.09-.11-.18-.17-.28-.08-.14.01.05-.01-.03-.02-.04-.03-.09-.05-.13-.02-.05-.03-.1-.04-.16-.02-.08-.02-.13,0,0-.01-.11-.02-.22-.01-.34,0-.05,0-.1.01-.15,0-.09-.02.13,0,.04,0-.04.01-.08.02-.11.07-.35-.1-.71-.46-.81-.32-.09-.74.11-.81.46-.21,1.12.16,2.17,1.06,2.88,1,.79,2.28,1.1,3.52,1.21,2.89.27,6.11-.61,8.26-2.61.56-.52,1.04-1.13,1.41-1.8.62-1.13,1.13-2.35,1.46-3.6.59-2.22.66-4.74-.2-6.91-.71-1.81-2.41-2.82-4.25-3.22-1.1-.24-2.19-.22-3.3-.29-.99-.06-1.96-.3-2.87-.66-1.88-.73-3.56-2.07-4.66-3.76-1.25-1.91-1.9-4.24-3.73-5.72-1.55-1.25-3.52-1.74-5.49-1.65s-4.02.64-5.76,1.56c-1.32.7-2.38,1.82-3.25,3.02-1.02,1.4-1.78,2.98-2.37,4.6-1.28,3.52-1.75,7.44-1.08,11.14.16.88.39,1.75.71,2.58.35.91.77,1.83,1.38,2.6.38.47.83.88,1.23,1.34.32.36.64.7,1.02,1,.79.62,1.71,1.04,2.69,1.25,1.1.23,2.21.22,3.32.06.59-.08,1.18-.18,1.72-.42.48-.21.92-.54,1.3-.91.84-.82,1.34-1.84,1.75-2.92.46-1.19.84-2.41,1.1-3.65.43-2.06.55-4.18.22-6.26-.27-1.73-.85-4.14-2.82-4.63-1.89-.47-3.31,1.63-4.24,2.92-1.1,1.51-2.06,3.09-2.98,4.71-1.17,2.06-2.24,4.17-3.55,6.15-.58.87-1.19,1.74-1.85,2.55-.68.85-1.5,1.59-2.33,2.29-1.53,1.29-3.22,2.57-5.09,3.32-1.8.72-3.74,1.04-5.68,1.03-3.66,0-7.52-1.1-10.44-3.35-1.47-1.14-2.54-2.62-3.4-4.31-.97-1.91-1.53-4.02-1.73-6.15-.42-4.52.6-9.07,2.1-13.32.34-.96.7-1.91,1.09-2.85.29-.69.65-1.57,1.13-2.03.08-.07,0,.02-.02.01-.02-.02.23-.05-.04,0,.07-.02.03,0-.06,0,0,0,.12.01.07,0,.19.06.33.14.48.27.45.41.76.93,1.12,1.4.79,1.05,1.58,2.11,2.42,3.13,1.22,1.48,2.8,3.46,4.97,2.79,1.64-.51,2.79-2.04,3.75-3.36.22-.3.44-.61.65-.92.09-.13.19-.27.29-.4.02-.03.05-.06.07-.09-.12.16.05-.06.06-.08.04-.06.09-.11.13-.17.42-.57.74-1.06,1.29-1.54.03-.03.06-.05.09-.08-.02.02-.1.06,0,0,.06-.04.12-.07.18-.1-.05.02-.11.01-.03.02.07,0,.05.02-.05,0,.08.01,0,0-.06-.02.08.03-.02-.02-.05-.03.09.03,0-.02-.03-.03.08.05,0,.01,0-.02,0,.02.11.21.07.11.08.2.12.42.18.63.27.97.55,1.94.82,2.91.68,2.41,1.35,4.82,2.03,7.23.23.81,1.49.47,1.26-.35h0Z"/>
    <g>
      <ellipse class="cls-1" cx="166.35" cy="227.48" rx="2.5" ry="3.56" transform="translate(-114.76 247.51) rotate(-57.9)"/>
      <path class="cls-1" d="M167.36,230.45c-.77,0-1.62-.24-2.41-.74-.83-.52-1.47-1.24-1.8-2.02-.34-.8-.31-1.57.07-2.17s1.06-.96,1.93-1.01c.85-.04,1.77.22,2.6.74s1.47,1.24,1.8,2.02c.34.8.31,1.57-.07,2.17h0c-.42.67-1.21,1.01-2.12,1.01ZM165.34,224.77c-.06,0-.12,0-.17,0-.78.04-1.39.35-1.72.88-.33.53-.35,1.22-.05,1.93.31.73.91,1.41,1.69,1.9,1.6,1.01,3.47.92,4.17-.19.33-.53.35-1.22.05-1.93-.31-.73-.91-1.41-1.69-1.9-.73-.46-1.53-.7-2.27-.7Z"/>
    </g>
    <g>
      <path class="cls-1" d="M120.47,235.74l2.78-4.82c.15-.26-.04-.59-.34-.59h-5.56c-.3,0-.5.33-.34.59l2.78,4.82c.15.26.53.26.69,0Z"/>
      <path class="cls-1" d="M120.13,236.07h0c-.19,0-.36-.1-.46-.26l-2.78-4.82c-.1-.17-.1-.36,0-.53.1-.16.27-.26.46-.26h5.56c.19,0,.36.1.46.26.1.17.1.36,0,.53l-2.78,4.82c-.1.17-.27.26-.46.26ZM122.91,230.46h-5.56c-.1,0-.18.05-.23.13s-.05.18,0,.26l2.78,4.82c.05.08.13.13.23.13h0c.1,0,.18-.05.23-.13l2.78-4.82c.05-.08.05-.18,0-.26s-.13-.13-.23-.13Z"/>
    </g>
  </g>
</svg>
