<svg xmlns="http://www.w3.org/2000/svg" viewBox="0 0 96 54" width="96" height="54">
<g fill="#D56756" fill-rule="evenodd">
  <path d="M 28.00,32.00 L 28.00,33.50 L 29.75,35.75 L 30.00,37.00 L 30.75,37.75 L 31.25,38.75 L 32.00,38.75 L 33.00,37.75 L 33.25,36.50 L 34.75,35.00 L 35.00,33.75 L 35.75,33.00 L 35.75,32.25 L 35.50,32.00 L 29.00,32.00 L 28.75,31.75 Z" />
  <path d="M 93.75,31.00 L 93.00,29.50 L 93.00,28.00 L 92.75,27.75 L 92.75,27.25 L 91.75,25.75 L 90.00,24.00 L 88.25,23.75 L 87.25,23.25 L 86.00,23.25 L 85.75,23.50 L 84.75,23.00 L 82.50,23.00 L 81.25,22.25 L 80.50,22.50 L 80.00,22.00 L 78.75,21.75 L 77.75,20.75 L 77.00,20.50 L 74.00,17.25 L 71.75,12.75 L 69.00,10.00 L 68.50,10.00 L 66.50,9.00 L 64.50,9.00 L 64.25,8.75 L 59.25,9.00 L 58.75,9.50 L 57.75,10.00 L 57.25,10.00 L 56.75,10.50 L 55.50,11.00 L 54.75,11.75 L 54.00,12.00 L 53.50,12.50 L 52.75,14.00 L 51.00,15.75 L 50.75,17.00 L 50.00,17.75 L 50.00,18.25 L 49.25,19.50 L 49.50,20.25 L 49.00,20.75 L 49.00,21.25 L 48.25,22.50 L 48.00,26.25 L 47.75,26.50 L 47.75,32.25 L 48.00,32.50 L 48.00,34.50 L 48.75,35.50 L 48.75,36.75 L 49.50,38.25 L 50.00,38.75 L 50.00,40.25 L 49.75,40.75 L 46.25,44.25 L 45.50,44.50 L 43.00,46.75 L 41.75,47.00 L 40.50,48.00 L 39.25,48.00 L 38.75,48.50 L 37.50,48.75 L 37.25,49.00 L 34.25,49.00 L 34.00,49.25 L 32.75,49.50 L 31.50,49.00 L 28.50,49.00 L 27.25,48.25 L 26.50,48.50 L 26.00,48.00 L 25.50,48.00 L 24.25,47.25 L 23.75,47.25 L 22.75,46.75 L 22.00,46.00 L 20.75,45.75 L 17.50,42.25 L 15.00,37.25 L 15.00,36.50 L 14.75,36.25 L 14.75,34.00 L 14.00,32.50 L 14.00,28.25 L 14.50,27.25 L 14.50,26.00 L 14.25,25.75 L 14.50,25.50 L 14.75,23.50 L 15.00,23.25 L 15.00,22.50 L 15.50,21.25 L 15.25,20.50 L 15.75,20.00 L 16.25,17.50 L 16.75,17.00 L 16.75,16.50 L 17.50,15.25 L 17.25,14.50 L 17.75,14.00 L 18.00,12.75 L 18.75,12.00 L 18.75,11.50 L 19.25,10.75 L 20.00,10.75 L 21.00,11.75 L 21.75,13.00 L 23.25,14.50 L 24.00,16.00 L 27.00,19.00 L 27.00,19.25 L 27.50,19.50 L 28.75,19.50 L 29.00,19.75 L 30.50,19.75 L 32.00,18.75 L 34.75,16.00 L 36.00,13.75 L 37.50,12.25 L 38.50,12.00 L 38.75,12.25 L 39.00,15.50 L 39.75,16.50 L 40.00,18.50 L 40.75,19.50 L 41.00,22.50 L 41.75,23.50 L 42.00,24.75 L 42.25,25.00 L 43.25,24.75 L 43.50,24.25 L 43.00,23.25 L 42.75,21.25 L 42.25,20.75 L 42.00,19.50 L 41.75,19.25 L 41.75,17.25 L 41.00,16.25 L 40.75,14.25 L 40.00,13.25 L 40.00,11.75 L 38.75,10.00 L 37.50,10.00 L 34.00,13.75 L 33.25,15.25 L 30.75,17.75 L 30.25,18.00 L 28.50,18.00 L 28.25,17.75 L 27.75,17.75 L 26.00,16.00 L 23.00,11.75 L 21.00,9.75 L 20.00,9.00 L 18.75,9.00 L 17.00,10.75 L 17.00,11.25 L 16.25,12.50 L 16.50,13.25 L 16.00,13.75 L 16.00,14.25 L 15.25,15.50 L 15.50,16.25 L 15.00,16.75 L 15.00,17.25 L 14.25,18.50 L 14.50,19.25 L 14.00,19.75 L 14.00,20.25 L 13.25,21.50 L 13.00,25.25 L 12.75,25.50 L 12.75,27.50 L 12.25,28.25 L 12.75,29.25 L 12.75,34.25 L 13.00,34.50 L 13.00,36.50 L 13.75,37.50 L 14.00,39.50 L 14.50,40.00 L 15.00,41.25 L 15.75,42.00 L 16.00,43.00 L 20.75,47.75 L 22.00,48.00 L 22.75,48.75 L 23.25,48.75 L 25.25,49.75 L 26.25,49.75 L 27.50,50.50 L 29.00,50.50 L 29.25,50.75 L 32.25,50.75 L 32.50,51.00 L 33.25,51.00 L 33.50,50.75 L 37.50,50.75 L 38.50,50.00 L 40.00,50.00 L 41.00,49.25 L 43.25,48.25 L 45.50,46.50 L 46.25,46.25 L 50.75,42.00 L 51.25,41.00 L 52.00,41.25 L 54.00,43.25 L 54.50,43.50 L 55.50,43.50 L 56.00,44.00 L 62.25,44.00 L 62.50,43.75 L 63.00,43.75 L 65.75,41.00 L 65.75,40.50 L 66.50,39.25 L 66.25,38.50 L 66.75,38.00 L 66.75,37.50 L 67.50,36.25 L 67.25,35.50 L 67.75,35.00 L 67.75,34.25 L 68.00,34.00 L 67.75,33.75 L 68.00,33.25 L 68.00,26.50 L 67.75,26.25 L 67.75,25.25 L 67.00,24.25 L 67.00,23.25 L 65.75,22.00 L 64.25,21.25 L 62.50,21.50 L 60.00,23.75 L 59.75,25.00 L 58.00,26.75 L 57.75,28.00 L 56.00,29.75 L 55.75,31.00 L 55.00,31.75 L 54.75,33.00 L 53.25,34.50 L 53.25,35.00 L 52.75,36.00 L 52.00,36.75 L 52.00,37.25 L 51.50,37.75 L 50.75,37.25 L 50.75,36.75 L 50.25,36.25 L 50.00,34.50 L 49.75,34.25 L 49.75,33.25 L 49.50,33.00 L 49.50,31.50 L 49.00,30.50 L 49.00,29.25 L 49.50,28.25 L 49.50,27.00 L 49.25,26.75 L 49.75,25.50 L 49.75,23.50 L 50.50,22.25 L 50.25,21.50 L 50.75,21.00 L 51.00,19.75 L 51.75,19.00 L 51.75,18.50 L 52.50,17.25 L 52.50,16.75 L 53.00,15.75 L 54.75,14.00 L 54.75,13.75 L 56.75,12.00 L 57.25,11.75 L 58.50,11.75 L 60.00,10.75 L 62.50,10.75 L 62.75,10.50 L 64.00,10.25 L 65.25,10.75 L 67.25,11.00 L 68.00,11.75 L 69.00,12.00 L 70.25,13.50 L 71.50,16.25 L 72.75,17.75 L 74.00,20.00 L 76.50,22.25 L 77.25,22.25 L 78.00,23.25 L 78.50,23.50 L 79.25,23.25 L 80.50,24.25 L 82.75,24.50 L 83.00,24.75 L 84.50,24.75 L 85.00,25.25 L 85.00,25.75 L 84.00,26.75 L 84.00,28.50 L 84.50,29.50 L 86.25,31.50 L 87.50,31.50 L 89.25,32.25 L 91.00,31.50 L 91.50,31.50 L 91.75,31.75 L 92.00,33.25 L 91.25,34.50 L 91.25,36.00 L 91.00,36.25 L 90.75,38.00 L 90.00,38.75 L 89.75,40.00 L 88.00,41.75 L 85.75,43.00 L 85.25,43.00 L 84.25,43.50 L 83.50,43.50 L 83.25,43.75 L 82.50,43.75 L 82.25,44.00 L 78.50,44.00 L 78.25,43.75 L 77.75,43.75 L 77.00,43.00 L 76.00,42.75 L 75.50,42.00 L 75.00,40.25 L 74.75,40.00 L 74.25,40.00 L 73.75,41.25 L 74.00,41.50 L 74.00,42.50 L 75.75,44.75 L 78.25,45.25 L 78.50,45.50 L 82.50,45.75 L 83.50,45.00 L 85.00,45.00 L 87.75,43.75 L 91.00,40.75 L 91.25,40.75 L 91.50,40.25 L 91.25,39.50 L 91.75,39.00 L 92.00,37.75 L 92.75,37.00 L 93.25,34.50 L 93.50,34.25 L 93.50,33.00 L 93.25,32.75 L 93.75,31.75 Z" />
  <path d="M 64.25,23.00 L 65.75,24.50 L 66.00,26.50 L 66.75,28.25 L 66.75,29.50 L 66.25,30.50 L 66.25,32.75 L 66.50,33.00 L 66.00,34.25 L 66.00,35.25 L 65.25,36.50 L 65.50,37.25 L 65.00,37.75 L 64.75,39.00 L 64.00,39.75 L 63.75,41.00 L 63.00,41.75 L 61.25,42.75 L 59.25,42.75 L 59.00,43.00 L 58.75,42.75 L 58.25,42.75 L 58.00,43.00 L 57.50,43.00 L 56.25,42.25 L 55.25,42.25 L 52.75,39.75 L 52.75,39.00 L 53.75,38.00 L 54.00,36.75 L 54.75,36.00 L 55.00,34.75 L 55.75,34.00 L 56.00,32.75 L 57.75,31.00 L 58.00,29.75 L 59.00,28.75 L 59.50,27.50 L 60.75,26.00 L 61.50,24.50 L 62.50,23.50 L 63.50,23.00 Z" />
</g>
</svg>